<svg width="18" height="18" viewBox="0 0 18 18" fill="none" xmlns="http://www.w3.org/2000/svg">
<path fill-rule="evenodd" clip-rule="evenodd" d="M8.82525 3.34088C9.15476 3.01137 9.68899 3.01137 10.0185 3.34088L15.081 8.40338C15.4105 8.73288 15.4105 9.26712 15.081 9.59662L10.0185 14.6591C9.68899 14.9886 9.15476 14.9886 8.82525 14.6591C8.49575 14.3296 8.49575 13.7954 8.82525 13.4659L13.2911 9L8.82525 4.53412C8.49575 4.20462 8.49575 3.67038 8.82525 3.34088Z" fill="white"/>
<path fill-rule="evenodd" clip-rule="evenodd" d="M2.67188 9C2.67188 8.53401 3.04963 8.15625 3.51562 8.15625H13.7812C14.2472 8.15625 14.625 8.53401 14.625 9C14.625 9.46599 14.2472 9.84375 13.7812 9.84375H3.51562C3.04963 9.84375 2.67188 9.46599 2.67188 9Z" fill="white"/>
</svg>
