<svg width="42" height="42" viewBox="0 0 42 42" fill="none" xmlns="http://www.w3.org/2000/svg">
<path fill-rule="evenodd" clip-rule="evenodd" d="M34.2046 20.5923C34.9735 21.3611 34.9735 22.6076 34.2046 23.3765L22.3921 35.189C21.6233 35.9578 20.3767 35.9578 19.6079 35.189L7.79538 23.3765C7.02654 22.6076 7.02654 21.3611 7.79538 20.5923C8.56423 19.8234 9.81077 19.8234 10.5796 20.5923L21 31.0126L31.4204 20.5923C32.1892 19.8234 33.4358 19.8234 34.2046 20.5923Z" fill="black"/>
<path fill-rule="evenodd" clip-rule="evenodd" d="M21 6.23437C22.0873 6.23437 22.9687 7.11581 22.9687 8.20312L22.9687 32.1562C22.9687 33.2436 22.0873 34.125 21 34.125C19.9127 34.125 19.0312 33.2436 19.0312 32.1562L19.0312 8.20312C19.0312 7.11581 19.9127 6.23437 21 6.23437Z" fill="black"/>
</svg>
