<svg width="17" height="647" viewBox="0 0 17 647" fill="none" xmlns="http://www.w3.org/2000/svg">
<path d="M2 1.76824L16 0.148242L16 1.58824L4.41 2.92824L16 7.49824L16 8.73824L4.41 10.0782L16 14.6482L16 16.0882L2 10.5682L2 8.90824L12.75 7.66824L2 3.40824L2 1.76824ZM2 15.93L16 17.89L16 26.41L14.6 26.22L14.6 19.1L10.2 18.48L10.2 24.37L8.8 24.18L8.8 18.28L3.4 17.52L3.4 24.64L2 24.45L2 15.93ZM10.78 27.1803L16 28.5303L16 29.9303L10.78 28.1103L10.78 27.1803ZM2 29.7776L16 31.7376L16 36.4876C16 37.2343 15.8167 37.881 15.45 38.4276C15.09 38.981 14.6 39.391 13.98 39.6576C13.3667 39.9243 12.6767 40.0043 11.91 39.8976C11.2233 39.8043 10.6 39.5776 10.04 39.2176C9.48 38.8576 9.01667 38.4076 8.65 37.8676C8.28333 37.3343 8.04 36.7543 7.92 36.1276L2 38.7276L2 37.1076L7.81 34.5476L7.81 31.9876L2 31.1776L2 29.7776ZM9.21 32.1876L9.21 35.4176C9.21 35.911 9.33 36.3776 9.57 36.8176C9.81667 37.2643 10.1467 37.6376 10.56 37.9376C10.98 38.2443 11.4533 38.4343 11.98 38.5076C12.5067 38.5876 12.9767 38.5343 13.39 38.3476C13.81 38.161 14.14 37.8776 14.38 37.4976C14.6267 37.1243 14.75 36.691 14.75 36.1976L14.75 32.9676L9.21 32.1876ZM2 41.2034L16 43.1634L16 51.6834L14.6 51.4934L14.6 44.3734L10.2 43.7534L10.2 49.6434L8.8 49.4534L8.8 43.5534L3.4 42.7934L3.4 49.9134L2 49.7234L2 41.2034ZM16 63.3807L16 65.1207L2 68.2607L2 66.7707L5 66.0907L5 59.3307L2 57.8207L2 56.3307L16 63.3807ZM6.4 60.0407L6.4 65.7807L14.28 64.0107L6.4 60.0407ZM1.74 81.5106C1.74 80.5639 1.92666 79.7006 2.3 78.9206C2.68 78.1406 3.2 77.4806 3.86 76.9406C4.52666 76.4073 5.3 76.0239 6.18 75.7906C7.06 75.5573 8 75.5106 9 75.6506C10 75.7906 10.94 76.1006 11.82 76.5806C12.7 77.0606 13.47 77.6606 14.13 78.3806C14.7967 79.1073 15.3167 79.9139 15.69 80.8006C16.07 81.6873 16.26 82.6039 16.26 83.5506C16.26 84.6839 15.9967 85.6873 15.47 86.5606C14.9433 87.4406 14.2433 88.1339 13.37 88.6406L12.7 87.3106C13.36 86.9106 13.8833 86.3606 14.27 85.6606C14.6633 84.9606 14.86 84.1939 14.86 83.3606C14.86 82.5939 14.7033 81.8573 14.39 81.1506C14.0833 80.4439 13.66 79.8006 13.12 79.2206C12.58 78.6473 11.9567 78.1706 11.25 77.7906C10.5433 77.4106 9.79333 77.1639 9 77.0506C8.19333 76.9373 7.43666 76.9706 6.73 77.1506C6.02333 77.3373 5.4 77.6439 4.86 78.0706C4.32 78.4973 3.89666 79.0206 3.59 79.6406C3.29 80.2606 3.14 80.9473 3.14 81.7006C3.14 82.5739 3.33666 83.4106 3.73 84.2106C4.13 85.0106 4.65 85.6973 5.29 86.2706L4.62 87.4106C3.74666 86.6639 3.04666 85.7773 2.52 84.7506C2 83.7239 1.74 82.6439 1.74 81.5106ZM2 89.1136L16 91.0736L16 95.8236C16 96.5702 15.8167 97.2169 15.45 97.7636C15.09 98.3169 14.6 98.7269 13.98 98.9936C13.3667 99.2602 12.6767 99.3402 11.91 99.2336C11.2233 99.1402 10.6 98.9136 10.04 98.5536C9.48 98.1936 9.01666 97.7436 8.65 97.2036C8.28333 96.6702 8.04 96.0902 7.92 95.4636L2 98.0636L2 96.4436L7.81 93.8836L7.81 91.3236L2 90.5136L2 89.1136ZM9.21 91.5236L9.21 94.7536C9.21 95.2469 9.33 95.7136 9.57 96.1536C9.81666 96.6002 10.1467 96.9736 10.56 97.2736C10.98 97.5802 11.4533 97.7702 11.98 97.8436C12.5067 97.9236 12.9767 97.8702 13.39 97.6836C13.81 97.4969 14.14 97.2136 14.38 96.8336C14.6267 96.4602 14.75 96.0269 14.75 95.5336L14.75 92.3036L9.21 91.5236ZM2 100.539L16 102.499L16 111.019L14.6 110.829L14.6 103.709L10.2 103.089L10.2 108.979L8.8 108.789L8.8 102.889L3.4 102.129L3.4 109.249L2 109.059L2 100.539ZM16 117.775L16 119.515L1.99999 122.655L1.99999 121.165L4.99999 120.485L5 113.725L2 112.215L2 110.725L16 117.775ZM6.4 114.435L6.39999 120.175L14.28 118.405L6.4 114.435ZM16 135.472L14.6 135.272L14.6 130.472L1.99999 128.712L1.99999 127.312L14.6 129.072L14.6 124.292L16 124.482L16 135.472ZM1.99999 135.82L16 137.78L16 139.18L1.99999 137.22L1.99999 135.82ZM1.99999 144.538L16 141.418L16 142.898L3.75999 145.628L16 151.798L16 153.278L1.99999 146.228L1.99999 144.538ZM1.99999 153.117L16 155.077L16 163.597L14.6 163.407L14.6 156.287L10.2 155.667L10.2 161.557L8.79999 161.367L8.79999 155.467L3.39999 154.707L3.39999 161.827L1.99999 161.637L1.99999 153.117ZM16 175.295L16 177.035L1.99999 180.175L1.99999 178.685L4.99999 178.005L4.99999 171.245L1.99999 169.735L1.99999 168.245L16 175.295ZM6.39999 171.955L6.39999 177.695L14.28 175.925L6.39999 171.955ZM1.73999 187.829C1.73999 186.869 1.92666 185.996 2.29999 185.209C2.67999 184.429 3.20333 183.773 3.86999 183.239C4.54333 182.706 5.31666 182.323 6.18999 182.089C7.06999 181.863 8.00999 181.819 9.00999 181.959C10.03 182.099 10.98 182.413 11.86 182.899C12.74 183.393 13.5067 184.006 14.16 184.739C14.82 185.473 15.3333 186.279 15.7 187.159C16.0667 188.046 16.25 188.956 16.25 189.889C16.25 190.963 16 191.939 15.5 192.819C15 193.706 14.29 194.423 13.37 194.969L12.69 193.619C13.39 193.179 13.9267 192.613 14.3 191.919C14.6733 191.226 14.86 190.483 14.86 189.689C14.86 188.936 14.7067 188.203 14.4 187.489C14.1 186.783 13.68 186.139 13.14 185.559C12.6 184.979 11.9767 184.496 11.27 184.109C10.5633 183.723 9.80333 183.473 8.98999 183.359C8.18333 183.246 7.42666 183.283 6.71999 183.469C6.01333 183.656 5.38999 183.963 4.84999 184.389C4.31666 184.816 3.89666 185.339 3.58999 185.959C3.28999 186.586 3.13999 187.279 3.13999 188.039C3.13999 188.666 3.24666 189.276 3.45999 189.869C3.67999 190.469 3.98666 191.026 4.37999 191.539C4.77333 192.059 5.23333 192.519 5.75999 192.919C6.28666 193.319 6.85999 193.636 7.47999 193.869L7.47999 190.099L8.74999 190.279L8.74999 195.689C7.78332 195.529 6.87666 195.206 6.02999 194.719C5.18333 194.233 4.43666 193.629 3.78999 192.909C3.14999 192.196 2.64666 191.403 2.27999 190.529C1.91999 189.663 1.73999 188.763 1.73999 187.829ZM1.99999 196.77L16 198.73L16 207.25L14.6 207.06L14.6 199.94L10.2 199.32L10.2 205.21L8.79999 205.02L8.79999 199.12L3.39999 198.36L3.39999 205.48L1.99999 205.29L1.99999 196.77ZM1.99999 207.629L16 209.589L16 211.109L4.52999 216.889L16 218.499L16 219.899L1.99999 217.939L1.99999 216.429L13.47 210.639L1.99999 209.029L1.99999 207.629ZM1.73999 226.784C1.73999 225.837 1.92666 224.974 2.29999 224.194C2.67999 223.414 3.19999 222.754 3.85999 222.214C4.52666 221.681 5.29999 221.297 6.17999 221.064C7.05999 220.831 7.99999 220.784 8.99999 220.924C9.99999 221.064 10.94 221.374 11.82 221.854C12.7 222.334 13.47 222.934 14.13 223.654C14.7967 224.381 15.3167 225.187 15.69 226.074C16.07 226.961 16.26 227.877 16.26 228.824C16.26 229.957 15.9967 230.961 15.47 231.834C14.9433 232.714 14.2433 233.407 13.37 233.914L12.7 232.584C13.36 232.184 13.8833 231.634 14.27 230.934C14.6633 230.234 14.86 229.467 14.86 228.634C14.86 227.867 14.7033 227.131 14.39 226.424C14.0833 225.717 13.66 225.074 13.12 224.494C12.58 223.921 11.9567 223.444 11.25 223.064C10.5433 222.684 9.79332 222.437 8.99999 222.324C8.19332 222.211 7.43666 222.244 6.72999 222.424C6.02332 222.611 5.39999 222.917 4.85999 223.344C4.31999 223.771 3.89666 224.294 3.58999 224.914C3.28999 225.534 3.13999 226.221 3.13999 226.974C3.13999 227.847 3.33666 228.684 3.72999 229.484C4.12999 230.284 4.64999 230.971 5.28999 231.544L4.61999 232.684C3.74666 231.937 3.04666 231.051 2.51999 230.024C1.99999 228.997 1.73999 227.917 1.73999 226.784ZM16 244.868L16 246.518L8.33999 240.728L1.99999 239.838L1.99999 238.438L8.33999 239.328L16 235.688L16 237.338L9.86999 240.238L16 244.868ZM16 263.714L14.6 263.514L14.6 258.714L1.99999 256.954L1.99999 255.554L14.6 257.314L14.6 252.534L16 252.724L16 263.714ZM16 274.472L16 275.872L1.99999 273.912L1.99999 272.512L8.79999 273.462L8.79999 266.112L1.99999 265.162L1.99999 263.762L16 265.722L16 267.122L10.2 266.312L10.2 273.652L16 274.472ZM16 282.971L16 284.711L1.99999 287.851L1.99999 286.361L4.99999 285.681L4.99999 278.921L1.99999 277.411L1.99999 275.921L16 282.971ZM6.39999 279.631L6.39999 285.371L14.28 283.601L6.39999 279.631ZM16 300.667L14.6 300.467L14.6 295.667L1.99999 293.907L1.99999 292.507L14.6 294.267L14.6 289.487L16 289.677L16 300.667ZM1.99999 305.52L16 307.48L16 312.21C16 312.89 15.86 313.49 15.58 314.01C15.3067 314.53 14.9033 314.916 14.37 315.17C13.8433 315.43 13.2033 315.506 12.45 315.4C12.0233 315.34 11.6167 315.206 11.23 315C10.8433 314.793 10.5133 314.546 10.24 314.26C9.97332 313.973 9.79999 313.68 9.71999 313.38C9.61332 313.78 9.42665 314.11 9.15999 314.37C8.89999 314.636 8.58999 314.84 8.22999 314.98C7.87665 315.126 7.50332 315.216 7.10999 315.25C6.71665 315.283 6.32999 315.273 5.94999 315.22C5.16332 315.113 4.47332 314.846 3.87999 314.42C3.28665 313.993 2.82332 313.47 2.48999 312.85C2.16332 312.23 1.99999 311.57 1.99999 310.87L1.99999 305.52ZM3.24999 307.09L3.24999 310.93C3.24999 311.416 3.37665 311.876 3.62999 312.31C3.88332 312.743 4.22999 313.11 4.66999 313.41C5.10999 313.71 5.60665 313.896 6.15999 313.97C6.65332 314.043 7.11665 313.99 7.54999 313.81C7.98999 313.636 8.34332 313.37 8.60999 313.01C8.88332 312.65 9.01999 312.226 9.01999 311.74L9.01999 307.9L3.24999 307.09ZM10.25 308.08L10.25 311.28C10.25 311.94 10.44 312.533 10.82 313.06C11.2067 313.586 11.7533 313.9 12.46 314C13.2333 314.106 13.8067 313.95 14.18 313.53C14.56 313.11 14.75 312.57 14.75 311.91L14.75 308.71L10.25 308.08ZM1.99999 316.496L16 318.456L16 323.206C16 323.953 15.8167 324.6 15.45 325.146C15.09 325.7 14.6 326.11 13.98 326.376C13.3667 326.643 12.6767 326.723 11.91 326.616C11.2233 326.523 10.6 326.296 10.04 325.936C9.47999 325.576 9.01665 325.126 8.64999 324.586C8.28332 324.053 8.03999 323.473 7.91999 322.846L1.99999 325.446L1.99999 323.826L7.80999 321.266L7.80999 318.706L1.99999 317.896L1.99999 316.496ZM9.20999 318.906L9.20999 322.136C9.20999 322.63 9.32999 323.096 9.56999 323.536C9.81665 323.983 10.1467 324.356 10.56 324.656C10.98 324.963 11.4533 325.153 11.98 325.226C12.5067 325.306 12.9767 325.253 13.39 325.066C13.81 324.88 14.14 324.596 14.38 324.216C14.6267 323.843 14.75 323.41 14.75 322.916L14.75 319.686L9.20999 318.906ZM16 334.064L16 335.804L1.99999 338.944L1.99999 337.454L4.99999 336.774L4.99999 330.014L1.99999 328.504L1.99999 327.014L16 334.064ZM6.39999 330.724L6.39999 336.464L14.28 334.694L6.39999 330.724ZM1.99998 349.803L1.99998 347.993L8.28998 344.283L6.85999 342.893L1.99998 342.213L1.99999 340.813L16 342.773L16 344.173L9.03999 343.193L16 350.003L16 351.833L9.38999 345.353L1.99998 349.803ZM1.73998 356.19C1.73998 355.443 1.85665 354.737 2.08998 354.07C2.32332 353.41 2.65665 352.85 3.08998 352.39C3.52332 351.937 4.03998 351.643 4.63998 351.51L5.12998 352.89C4.71665 352.983 4.35998 353.203 4.05998 353.55C3.76665 353.897 3.53998 354.32 3.37998 354.82C3.21998 355.32 3.13998 355.843 3.13998 356.39C3.13998 357.023 3.24665 357.63 3.45998 358.21C3.67332 358.797 3.96998 359.287 4.34998 359.68C4.73665 360.08 5.18998 360.317 5.70998 360.39C6.23665 360.463 6.66998 360.347 7.00998 360.04C7.34998 359.733 7.61665 359.317 7.80998 358.79C8.00998 358.263 8.16332 357.703 8.26998 357.11C8.43665 356.183 8.66332 355.36 8.94998 354.64C9.23665 353.92 9.63998 353.377 10.16 353.01C10.6867 352.643 11.38 352.52 12.24 352.64C13.0467 352.753 13.7467 353.087 14.34 353.64C14.9333 354.193 15.3933 354.873 15.72 355.68C16.0467 356.493 16.21 357.343 16.21 358.23C16.21 358.957 16.0967 359.65 15.87 360.31C15.6433 360.97 15.3133 361.533 14.88 362C14.4467 362.473 13.9167 362.783 13.29 362.93L12.81 361.53C13.23 361.443 13.5867 361.223 13.88 360.87C14.18 360.523 14.4067 360.1 14.56 359.6C14.72 359.1 14.8 358.577 14.8 358.03C14.8067 357.397 14.7 356.787 14.48 356.2C14.2667 355.62 13.9667 355.133 13.58 354.74C13.2 354.347 12.7533 354.113 12.24 354.04C11.64 353.96 11.1767 354.057 10.85 354.33C10.53 354.603 10.29 355 10.13 355.52C9.96998 356.047 9.82665 356.643 9.69998 357.31C9.54665 358.183 9.30665 358.98 8.97998 359.7C8.65998 360.42 8.22998 360.977 7.68998 361.37C7.15665 361.763 6.49665 361.903 5.70998 361.79C4.90998 361.677 4.20998 361.343 3.60998 360.79C3.01665 360.243 2.55665 359.563 2.22998 358.75C1.90332 357.943 1.73998 357.09 1.73998 356.19ZM1.99998 368.352L16 370.312L16 374.942C16 375.909 15.8167 376.789 15.45 377.582C15.09 378.382 14.5867 379.055 13.94 379.602C13.3 380.155 12.5567 380.552 11.71 380.792C10.87 381.039 9.96665 381.095 8.99998 380.962C8.03332 380.829 7.12665 380.522 6.27998 380.042C5.43998 379.562 4.69665 378.955 4.04998 378.222C3.40998 377.489 2.90665 376.672 2.53998 375.772C2.17998 374.879 1.99998 373.949 1.99998 372.982L1.99998 368.352ZM3.39998 369.942L3.39998 373.172C3.39998 373.945 3.54332 374.689 3.82998 375.402C4.12332 376.122 4.52665 376.775 5.03998 377.362C5.55332 377.949 6.14665 378.435 6.81998 378.822C7.49998 379.209 8.22665 379.455 8.99998 379.562C9.77332 379.669 10.4967 379.622 11.17 379.422C11.85 379.229 12.4467 378.912 12.96 378.472C13.4733 378.032 13.8733 377.492 14.16 376.852C14.4533 376.219 14.6 375.515 14.6 374.742L14.6 371.522L3.39998 369.942ZM1.99998 381.828L16 383.788L16 392.308L14.6 392.118L14.6 384.998L10.2 384.378L10.2 390.268L8.79998 390.078L8.79998 384.178L3.39998 383.418L3.39998 390.538L1.99998 390.348L1.99998 381.828ZM1.73998 397.401C1.73998 396.654 1.85665 395.948 2.08998 395.281C2.32332 394.621 2.65665 394.061 3.08998 393.601C3.52332 393.148 4.03998 392.854 4.63998 392.721L5.12998 394.101C4.71665 394.194 4.35998 394.414 4.05998 394.761C3.76665 395.108 3.53998 395.531 3.37998 396.031C3.21998 396.531 3.13998 397.054 3.13998 397.601C3.13998 398.234 3.24665 398.841 3.45998 399.421C3.67332 400.008 3.96998 400.498 4.34998 400.891C4.73665 401.291 5.18998 401.528 5.70998 401.601C6.23665 401.674 6.66998 401.558 7.00998 401.251C7.34998 400.944 7.61665 400.528 7.80998 400.001C8.00998 399.474 8.16332 398.914 8.26998 398.321C8.43665 397.394 8.66332 396.571 8.94998 395.851C9.23665 395.131 9.63998 394.588 10.16 394.221C10.6866 393.854 11.38 393.731 12.24 393.851C13.0467 393.964 13.7467 394.298 14.34 394.851C14.9333 395.404 15.3933 396.084 15.72 396.891C16.0467 397.704 16.21 398.554 16.21 399.441C16.21 400.168 16.0967 400.861 15.87 401.521C15.6433 402.181 15.3133 402.744 14.88 403.211C14.4466 403.684 13.9166 403.994 13.29 404.141L12.81 402.741C13.23 402.654 13.5866 402.434 13.88 402.081C14.18 401.734 14.4066 401.311 14.56 400.811C14.72 400.311 14.8 399.788 14.8 399.241C14.8066 398.608 14.7 397.998 14.48 397.411C14.2666 396.831 13.9667 396.344 13.58 395.951C13.2 395.558 12.7533 395.324 12.24 395.251C11.64 395.171 11.1766 395.268 10.85 395.541C10.53 395.814 10.29 396.211 10.13 396.731C9.96998 397.258 9.82665 397.854 9.69998 398.521C9.54665 399.394 9.30665 400.191 8.97998 400.911C8.65998 401.631 8.22998 402.188 7.68998 402.581C7.15665 402.974 6.49665 403.114 5.70998 403.001C4.90998 402.888 4.20998 402.554 3.60998 402.001C3.01665 401.454 2.55665 400.774 2.22998 399.961C1.90332 399.154 1.73998 398.301 1.73998 397.401ZM1.99998 405.195L16 407.155L16 408.555L1.99998 406.595L1.99998 405.195ZM1.73998 415.739C1.73998 414.779 1.92665 413.906 2.29998 413.119C2.67998 412.339 3.20332 411.683 3.86998 411.149C4.54332 410.616 5.31665 410.233 6.18998 409.999C7.06998 409.773 8.00998 409.729 9.00998 409.869C10.03 410.009 10.98 410.323 11.86 410.809C12.74 411.303 13.5066 411.916 14.16 412.649C14.82 413.383 15.3333 414.189 15.7 415.069C16.0666 415.956 16.25 416.866 16.25 417.799C16.25 418.873 16 419.849 15.5 420.729C15 421.616 14.29 422.333 13.37 422.879L12.69 421.529C13.39 421.089 13.9266 420.523 14.3 419.829C14.6733 419.136 14.86 418.393 14.86 417.599C14.86 416.846 14.7066 416.113 14.4 415.399C14.1 414.693 13.68 414.049 13.14 413.469C12.6 412.889 11.9766 412.406 11.27 412.019C10.5633 411.633 9.80332 411.383 8.98998 411.269C8.18332 411.156 7.42665 411.193 6.71998 411.379C6.01332 411.566 5.38998 411.873 4.84998 412.299C4.31665 412.726 3.89665 413.249 3.58998 413.869C3.28998 414.496 3.13998 415.189 3.13998 415.949C3.13998 416.576 3.24665 417.186 3.45998 417.779C3.67998 418.379 3.98665 418.936 4.37998 419.449C4.77332 419.969 5.23332 420.429 5.75998 420.829C6.28665 421.229 6.85998 421.546 7.47998 421.779L7.47998 418.009L8.74998 418.189L8.74998 423.599C7.78332 423.439 6.87665 423.116 6.02998 422.629C5.18332 422.143 4.43665 421.539 3.78998 420.819C3.14998 420.106 2.64665 419.313 2.27998 418.439C1.91998 417.573 1.73998 416.673 1.73998 415.739ZM1.99998 424.68L16 426.64L16 428.16L4.52998 433.94L16 435.55L16 436.95L1.99998 434.99L1.99998 433.48L13.47 427.69L1.99998 426.08L1.99998 424.68ZM1.73998 447.049C1.73998 446.303 1.85665 445.596 2.08998 444.929C2.32331 444.269 2.65665 443.709 3.08998 443.249C3.52331 442.796 4.03998 442.503 4.63998 442.369L5.12998 443.749C4.71665 443.843 4.35998 444.063 4.05998 444.409C3.76665 444.756 3.53998 445.179 3.37998 445.679C3.21998 446.179 3.13998 446.703 3.13998 447.249C3.13998 447.883 3.24665 448.489 3.45998 449.069C3.67331 449.656 3.96998 450.146 4.34998 450.539C4.73665 450.939 5.18998 451.176 5.70998 451.249C6.23665 451.323 6.66998 451.206 7.00998 450.899C7.34998 450.593 7.61665 450.176 7.80998 449.649C8.00998 449.123 8.16331 448.563 8.26998 447.969C8.43665 447.043 8.66331 446.219 8.94998 445.499C9.23665 444.779 9.63998 444.236 10.16 443.869C10.6866 443.503 11.38 443.379 12.24 443.499C13.0466 443.613 13.7466 443.946 14.34 444.499C14.9333 445.053 15.3933 445.733 15.72 446.539C16.0466 447.353 16.21 448.203 16.21 449.089C16.21 449.816 16.0966 450.509 15.87 451.169C15.6433 451.829 15.3133 452.393 14.88 452.859C14.4466 453.333 13.9166 453.643 13.29 453.789L12.81 452.389C13.23 452.303 13.5866 452.083 13.88 451.729C14.18 451.383 14.4066 450.959 14.56 450.459C14.72 449.959 14.8 449.436 14.8 448.889C14.8066 448.256 14.7 447.646 14.48 447.059C14.2666 446.479 13.9666 445.993 13.58 445.599C13.2 445.206 12.7533 444.973 12.24 444.899C11.64 444.819 11.1766 444.916 10.85 445.189C10.53 445.463 10.29 445.859 10.13 446.379C9.96998 446.906 9.82665 447.503 9.69998 448.169C9.54665 449.043 9.30665 449.839 8.97998 450.559C8.65998 451.279 8.22998 451.836 7.68998 452.229C7.15665 452.623 6.49665 452.763 5.70998 452.649C4.90998 452.536 4.20998 452.203 3.60998 451.649C3.01665 451.103 2.55665 450.423 2.22998 449.609C1.90331 448.803 1.73998 447.949 1.73998 447.049ZM16 466.429L14.6 466.229L14.6 461.429L1.99998 459.669L1.99998 458.269L14.6 460.029L14.6 455.249L16 455.439L16 466.429ZM16 471.389L16 473.129L1.99998 476.269L1.99998 474.779L4.99998 474.099L4.99998 467.339L1.99998 465.829L1.99998 464.339L16 471.389ZM6.39998 468.049L6.39998 473.789L14.28 472.019L6.39998 468.049ZM1.99998 478.137L16 480.097L16 481.617L4.52998 487.397L16 489.007L16 490.407L1.99998 488.447L1.99998 486.937L13.47 481.147L1.99998 479.537L1.99998 478.137ZM1.99998 490.852L16 492.812L16 497.442C16 498.409 15.8166 499.289 15.45 500.082C15.09 500.882 14.5866 501.555 13.94 502.102C13.3 502.655 12.5566 503.052 11.71 503.292C10.87 503.539 9.96664 503.595 8.99998 503.462C8.03331 503.329 7.12664 503.022 6.27998 502.542C5.43998 502.062 4.69664 501.455 4.04998 500.722C3.40998 499.989 2.90664 499.172 2.53998 498.272C2.17998 497.379 1.99998 496.449 1.99998 495.482L1.99998 490.852ZM3.39998 492.442L3.39998 495.672C3.39998 496.445 3.54331 497.189 3.82998 497.902C4.12331 498.622 4.52664 499.275 5.03998 499.862C5.55331 500.449 6.14664 500.935 6.81998 501.322C7.49998 501.709 8.22665 501.955 8.99998 502.062C9.77331 502.169 10.4966 502.122 11.17 501.922C11.85 501.729 12.4466 501.412 12.96 500.972C13.4733 500.532 13.8733 499.992 14.16 499.352C14.4533 498.719 14.6 498.015 14.6 497.242L14.6 494.022L3.39998 492.442ZM16 510.139L16 511.879L1.99998 515.019L1.99998 513.529L4.99998 512.849L4.99998 506.089L1.99998 504.579L1.99998 503.089L16 510.139ZM6.39998 506.799L6.39998 512.539L14.28 510.769L6.39998 506.799ZM1.99998 516.887L16 518.847L16 523.597C16 524.344 15.8166 524.99 15.45 525.537C15.09 526.09 14.6 526.5 13.98 526.767C13.3666 527.034 12.6766 527.114 11.91 527.007C11.2233 526.914 10.6 526.687 10.04 526.327C9.47998 525.967 9.01664 525.517 8.64998 524.977C8.28331 524.444 8.03998 523.864 7.91998 523.237L1.99998 525.837L1.99998 524.217L7.80998 521.657L7.80998 519.097L1.99998 518.287L1.99998 516.887ZM9.20998 519.297L9.20998 522.527C9.20998 523.02 9.32998 523.487 9.56998 523.927C9.81664 524.374 10.1466 524.747 10.56 525.047C10.98 525.354 11.4533 525.544 11.98 525.617C12.5066 525.697 12.9766 525.644 13.39 525.457C13.81 525.27 14.14 524.987 14.38 524.607C14.6266 524.234 14.75 523.8 14.75 523.307L14.75 520.077L9.20998 519.297ZM1.99998 528.313L16 530.273L16 534.903C16 535.869 15.8166 536.749 15.45 537.543C15.09 538.343 14.5866 539.016 13.94 539.563C13.3 540.116 12.5566 540.513 11.71 540.753C10.87 540.999 9.96664 541.056 8.99998 540.923C8.03331 540.789 7.12664 540.483 6.27998 540.003C5.43998 539.523 4.69664 538.916 4.04998 538.183C3.40998 537.449 2.90664 536.633 2.53998 535.733C2.17998 534.839 1.99998 533.909 1.99998 532.943L1.99998 528.313ZM3.39998 529.903L3.39998 533.133C3.39998 533.906 3.54331 534.649 3.82998 535.363C4.12331 536.083 4.52664 536.736 5.03998 537.323C5.55331 537.909 6.14664 538.396 6.81998 538.783C7.49998 539.169 8.22664 539.416 8.99998 539.523C9.77331 539.629 10.4966 539.583 11.17 539.383C11.85 539.189 12.4466 538.873 12.96 538.433C13.4733 537.993 13.8733 537.453 14.16 536.813C14.4533 536.179 14.6 535.476 14.6 534.703L14.6 531.483L3.39998 529.903ZM1.73998 546.737C1.73998 545.99 1.85664 545.284 2.08998 544.617C2.32331 543.957 2.65664 543.397 3.08998 542.937C3.52331 542.484 4.03998 542.19 4.63998 542.057L5.12998 543.437C4.71664 543.53 4.35998 543.75 4.05998 544.097C3.76664 544.444 3.53998 544.867 3.37998 545.367C3.21998 545.867 3.13998 546.39 3.13998 546.937C3.13998 547.57 3.24664 548.177 3.45998 548.757C3.67331 549.344 3.96998 549.834 4.34998 550.227C4.73664 550.627 5.18998 550.864 5.70998 550.937C6.23664 551.01 6.66998 550.894 7.00998 550.587C7.34998 550.28 7.61664 549.864 7.80998 549.337C8.00998 548.81 8.16331 548.25 8.26998 547.657C8.43664 546.73 8.66331 545.907 8.94998 545.187C9.23664 544.467 9.63998 543.924 10.16 543.557C10.6866 543.19 11.38 543.067 12.24 543.187C13.0466 543.3 13.7466 543.634 14.34 544.187C14.9333 544.74 15.3933 545.42 15.72 546.227C16.0466 547.04 16.21 547.89 16.21 548.777C16.21 549.504 16.0966 550.197 15.87 550.857C15.6433 551.517 15.3133 552.08 14.88 552.547C14.4466 553.02 13.9166 553.33 13.29 553.477L12.81 552.077C13.23 551.99 13.5866 551.77 13.88 551.417C14.18 551.07 14.4066 550.647 14.56 550.147C14.72 549.647 14.8 549.124 14.8 548.577C14.8066 547.944 14.7 547.334 14.48 546.747C14.2666 546.167 13.9666 545.68 13.58 545.287C13.2 544.894 12.7533 544.66 12.24 544.587C11.64 544.507 11.1766 544.604 10.85 544.877C10.53 545.15 10.29 545.547 10.13 546.067C9.96998 546.594 9.82664 547.19 9.69998 547.857C9.54664 548.73 9.30664 549.527 8.97998 550.247C8.65998 550.967 8.22998 551.524 7.68998 551.917C7.15664 552.31 6.49664 552.45 5.70998 552.337C4.90998 552.224 4.20998 551.89 3.60998 551.337C3.01664 550.79 2.55664 550.11 2.22998 549.297C1.90331 548.49 1.73998 547.637 1.73998 546.737ZM0.879976 553.163L4.25998 554.253L4.25998 555.653L0.879976 554.093L0.879976 553.163ZM16 573.091L16 574.741L8.33998 568.951L1.99998 568.061L1.99998 566.661L8.33998 567.551L16 563.911L16 565.561L9.86998 568.461L16 573.091ZM1.73997 580.242C1.73997 579.295 1.92664 578.428 2.29997 577.642C2.67997 576.862 3.20331 576.202 3.86997 575.662C4.53664 575.128 5.30664 574.742 6.17997 574.502C7.05997 574.268 7.99998 574.222 8.99998 574.362C9.99998 574.502 10.9366 574.812 11.81 575.292C12.69 575.772 13.4633 576.375 14.13 577.102C14.7966 577.835 15.3166 578.645 15.69 579.532C16.07 580.418 16.26 581.335 16.26 582.282C16.26 583.235 16.07 584.102 15.69 584.882C15.3166 585.662 14.7966 586.318 14.13 586.852C13.4633 587.392 12.69 587.778 11.81 588.012C10.9366 588.252 9.99997 588.302 8.99997 588.162C7.99997 588.022 7.05997 587.712 6.17997 587.232C5.30664 586.752 4.53664 586.145 3.86997 585.412C3.20331 584.685 2.67997 583.878 2.29997 582.992C1.92664 582.112 1.73997 581.195 1.73997 580.242ZM3.13997 580.432C3.13997 581.198 3.29331 581.935 3.59997 582.642C3.91331 583.348 4.33997 583.992 4.87997 584.572C5.41997 585.152 6.04331 585.632 6.74997 586.012C7.45664 586.398 8.20664 586.648 8.99997 586.762C9.79997 586.875 10.5533 586.838 11.26 586.652C11.9733 586.465 12.5966 586.158 13.13 585.732C13.67 585.305 14.0933 584.782 14.4 584.162C14.7066 583.542 14.86 582.852 14.86 582.092C14.86 581.325 14.7033 580.588 14.39 579.882C14.0833 579.175 13.66 578.532 13.12 577.952C12.58 577.372 11.9566 576.888 11.25 576.502C10.5433 576.122 9.79331 575.875 8.99998 575.762C8.19331 575.648 7.43664 575.685 6.72997 575.872C6.02331 576.058 5.39997 576.365 4.85997 576.792C4.31997 577.218 3.89664 577.742 3.58997 578.362C3.28997 578.982 3.13997 579.672 3.13997 580.432ZM1.73997 594.484C1.73997 593.364 2.01331 592.437 2.55997 591.704C3.10664 590.971 3.83997 590.447 4.75997 590.134C5.68664 589.827 6.71331 589.754 7.83997 589.914L16 591.054L16 592.454L7.83997 591.314C6.98664 591.194 6.20331 591.237 5.48997 591.444C4.77664 591.657 4.20664 592.034 3.77997 592.574C3.35331 593.114 3.13997 593.817 3.13997 594.684C3.13997 595.557 3.35331 596.324 3.77997 596.984C4.21331 597.644 4.78664 598.177 5.49997 598.584C6.21331 598.991 6.99331 599.254 7.83997 599.374L16 600.514L16 601.914L7.83997 600.774C6.99331 600.654 6.19997 600.417 5.45997 600.064C4.72664 599.711 4.07997 599.257 3.51997 598.704C2.95997 598.157 2.52331 597.527 2.20997 596.814C1.89664 596.101 1.73997 595.324 1.73997 594.484ZM1.73997 613.6C1.73997 612.654 1.92664 611.79 2.29997 611.01C2.67997 610.23 3.19997 609.57 3.85997 609.03C4.52664 608.497 5.29997 608.114 6.17997 607.88C7.05997 607.647 7.99997 607.6 8.99997 607.74C9.99997 607.88 10.94 608.19 11.82 608.67C12.7 609.15 13.47 609.75 14.13 610.47C14.7966 611.197 15.3166 612.004 15.69 612.89C16.07 613.777 16.26 614.694 16.26 615.64C16.26 616.774 15.9966 617.777 15.47 618.65C14.9433 619.53 14.2433 620.224 13.37 620.73L12.7 619.4C13.36 619 13.8833 618.45 14.27 617.75C14.6633 617.05 14.86 616.284 14.86 615.45C14.86 614.684 14.7033 613.947 14.39 613.24C14.0833 612.534 13.66 611.89 13.12 611.31C12.58 610.737 11.9566 610.26 11.25 609.88C10.5433 609.5 9.79331 609.254 8.99997 609.14C8.19331 609.027 7.43664 609.06 6.72997 609.24C6.02331 609.427 5.39997 609.734 4.85997 610.16C4.31997 610.587 3.89664 611.11 3.58997 611.73C3.28997 612.35 3.13997 613.037 3.13997 613.79C3.13997 614.664 3.33664 615.5 3.72997 616.3C4.12997 617.1 4.64997 617.787 5.28997 618.36L4.61997 619.5C3.74664 618.754 3.04664 617.867 2.51997 616.84C1.99997 615.814 1.73997 614.734 1.73997 613.6ZM16 627.717L16 629.457L1.99997 632.597L1.99997 631.107L4.99997 630.427L4.99997 623.667L1.99997 622.157L1.99997 620.667L16 627.717ZM6.39997 624.377L6.39997 630.117L14.28 628.347L6.39997 624.377ZM1.99997 634.465L16 636.425L16 637.945L4.52997 643.725L16 645.335L16 646.735L1.99997 644.775L1.99997 643.265L13.47 637.475L1.99997 635.865L1.99997 634.465Z" fill="white"/>
</svg>
