<svg width="603" height="159" viewBox="0 0 603 159" fill="none" xmlns="http://www.w3.org/2000/svg">
<path d="M1 96L96 1L1 142L101 35.5L36.5 148.5L116 78L74.5 129.5" stroke="#1BCFBD"/>
<path d="M57.76 145V77.8H100.576V92.2H72.16V101.8H94.048V116.2H72.16V130.6H100.576V145H57.76ZM111.104 109H141.824V123.4H111.104V109ZM184.489 146.248C179.945 146.248 175.673 145.352 171.673 143.56C167.673 141.736 164.153 139.224 161.113 136.024C158.105 132.824 155.737 129.128 154.009 124.936C152.313 120.712 151.465 116.2 151.465 111.4C151.465 106.568 152.313 102.056 154.009 97.864C155.737 93.64 158.105 89.944 161.113 86.776C164.153 83.576 167.673 81.08 171.673 79.288C175.673 77.464 179.945 76.552 184.489 76.552C189.929 76.552 194.937 77.816 199.513 80.344C204.089 82.84 207.881 86.184 210.889 90.376L198.025 97.288C196.361 95.368 194.361 93.832 192.025 92.68C189.689 91.528 187.177 90.952 184.489 90.952C181.929 90.952 179.513 91.48 177.241 92.536C175.001 93.592 173.017 95.064 171.289 96.952C169.593 98.808 168.265 100.968 167.305 103.432C166.345 105.896 165.865 108.552 165.865 111.4C165.865 114.216 166.345 116.856 167.305 119.32C168.265 121.784 169.593 123.96 171.289 125.848C173.017 127.704 175.001 129.176 177.241 130.264C179.513 131.32 181.929 131.848 184.489 131.848C187.177 131.848 189.689 131.272 192.025 130.12C194.361 128.936 196.361 127.368 198.025 125.416L210.889 132.424C207.881 136.584 204.089 139.928 199.513 142.456C194.937 144.984 189.929 146.248 184.489 146.248ZM250.21 146.248C245.666 146.248 241.394 145.352 237.394 143.56C233.394 141.736 229.874 139.224 226.834 136.024C223.794 132.824 221.41 129.128 219.682 124.936C217.954 120.712 217.09 116.2 217.09 111.4C217.09 106.6 217.954 102.104 219.682 97.912C221.41 93.688 223.794 89.976 226.834 86.776C229.874 83.576 233.394 81.08 237.394 79.288C241.394 77.464 245.666 76.552 250.21 76.552C254.786 76.552 259.074 77.464 263.074 79.288C267.074 81.08 270.594 83.576 273.634 86.776C276.674 89.976 279.042 93.688 280.738 97.912C282.466 102.104 283.33 106.6 283.33 111.4C283.33 116.2 282.466 120.712 280.738 124.936C279.042 129.128 276.674 132.824 273.634 136.024C270.594 139.224 267.074 141.736 263.074 143.56C259.074 145.352 254.786 146.248 250.21 146.248ZM250.21 131.848C252.77 131.848 255.17 131.32 257.41 130.264C259.682 129.176 261.682 127.704 263.41 125.848C265.138 123.96 266.482 121.784 267.442 119.32C268.434 116.856 268.93 114.216 268.93 111.4C268.93 108.584 268.434 105.944 267.442 103.48C266.482 101.016 265.138 98.856 263.41 97C261.682 95.112 259.682 93.64 257.41 92.584C255.17 91.496 252.77 90.952 250.21 90.952C247.65 90.952 245.234 91.496 242.962 92.584C240.722 93.64 238.738 95.112 237.01 97C235.282 98.856 233.922 101.016 232.93 103.48C231.97 105.944 231.49 108.584 231.49 111.4C231.49 114.216 231.97 116.856 232.93 119.32C233.922 121.784 235.282 123.96 237.01 125.848C238.738 127.704 240.722 129.176 242.962 130.264C245.234 131.32 247.65 131.848 250.21 131.848ZM288.573 145L301.629 77.8H313.917L328.989 117.448L344.061 77.8H356.349L369.405 145H354.717L347.709 108.712L333.981 145H323.997L310.269 108.712L303.261 145H288.573ZM378.948 145V77.8H421.764V92.2H393.348V101.8H415.236V116.2H393.348V130.6H421.764V145H378.948ZM432.291 145V77.8H459.651C463.331 77.8 466.659 78.728 469.635 80.584C472.611 82.44 474.963 84.936 476.691 88.072C478.451 91.176 479.331 94.6 479.331 98.344C479.331 101.224 478.851 103.912 477.891 106.408C476.931 108.872 475.555 111.064 473.763 112.984C472.003 114.872 469.923 116.392 467.523 117.544L483.459 145H466.851L451.683 118.888H446.691V145H432.291ZM446.691 104.488H457.923C459.203 104.488 460.371 104.168 461.427 103.528C462.483 102.856 463.331 101.976 463.971 100.888C464.611 99.8 464.931 98.6 464.931 97.288C464.931 95.976 464.611 94.776 463.971 93.688C463.331 92.6 462.483 91.736 461.427 91.096C460.371 90.424 459.203 90.088 457.923 90.088H446.691V104.488ZM520.302 146.248C515.758 146.248 511.486 145.352 507.486 143.56C503.486 141.736 499.966 139.224 496.926 136.024C493.918 132.824 491.55 129.128 489.822 124.936C488.126 120.712 487.278 116.2 487.278 111.4C487.278 106.568 488.126 102.056 489.822 97.864C491.55 93.64 493.918 89.944 496.926 86.776C499.966 83.576 503.486 81.08 507.486 79.288C511.486 77.464 515.758 76.552 520.302 76.552C525.742 76.552 530.75 77.816 535.326 80.344C539.902 82.84 543.694 86.184 546.702 90.376L533.838 97.288C532.174 95.368 530.174 93.832 527.838 92.68C525.502 91.528 522.99 90.952 520.302 90.952C517.742 90.952 515.326 91.48 513.054 92.536C510.814 93.592 508.83 95.064 507.102 96.952C505.406 98.808 504.078 100.968 503.118 103.432C502.158 105.896 501.678 108.552 501.678 111.4C501.678 114.216 502.158 116.856 503.118 119.32C504.078 121.784 505.406 123.96 507.102 125.848C508.83 127.704 510.814 129.176 513.054 130.264C515.326 131.32 517.742 131.848 520.302 131.848C522.99 131.848 525.502 131.272 527.838 130.12C530.174 128.936 532.174 127.368 533.838 125.416L546.702 132.424C543.694 136.584 539.902 139.928 535.326 142.456C530.75 144.984 525.742 146.248 520.302 146.248ZM555.291 145V77.8H598.107V92.2H569.691V101.8H591.579V116.2H569.691V130.6H598.107V145H555.291Z" fill="white"/>
</svg>
